<svg xmlns="http://www.w3.org/2000/svg" xmlns:xlink="http://www.w3.org/1999/xlink" viewBox="0 0 263.32 89.53">
	<defs>
		<style>
			.cls-1{fill:none;}.cls-2{clip-path:url(#clip-path);}.cls-3,.cls-5{fill:#005248;}.cls-4{fill:#C3FCF2;}.cls-5{font-size:46.21px;font-family:Montserrat-SemiBold, Montserrat;font-weight:600;}.cls-6{letter-spacing:-0.03em;}
		</style>
		<clipPath id="clip-path">
			<circle class="cls-1" cx="44.77" cy="44.77" r="44.77" />
		</clipPath>
	</defs>
	<g id="Camada_2" data-name="Camada 2">
		<g id="Camada_1-2" data-name="Camada 1">
			<g id="Camada_2-2" data-name="Camada 2">
				<g id="Camada_6" data-name="Camada 6">
					<g class="cls-2">
						<circle class="cls-3" cx="44.77" cy="44.77" r="44.77" />
					</g>
					<polygon class="cls-4" points="49.85 20.28 49.85 20.29 45.06 30.17 37.54 45.75 33.31 54.49 23 54.49 27.41 45.37 29.81 40.42 32.54 34.77 34.08 31.6 39.91 19.52 44.7 9.63 49.85 20.28" />
					<polygon class="cls-4" points="58.3 37.76 53.52 47.65 50.21 54.49 41.48 54.49 43.66 49.97 49.15 38.62 53.93 28.73 58.3 37.76" />
					<polygon class="cls-4" points="74.62 71.24 65.05 71.24 59.79 60.37 57.16 54.93 54.3 48.82 59.08 38.93 60.99 43.06 61.46 44.03 66.73 54.93 69.36 60.37 74.62 71.24" />
					<polygon class="cls-4" points="47.58 59.93 42.12 71.22 33.39 71.22 38.85 59.93 47.58 59.93" />
					<polygon class="cls-4" points="30.68 59.93 25.22 71.22 14.91 71.22 20.37 59.93 30.68 59.93" />
				</g>
			</g>
			<text class="cls-5" transform="translate(98.2 47.34) scale(0.77 1)">
				<tspan class="cls-6">
					A
				</tspan>
				<tspan x="32.99" y="0">
					THLETE
				</tspan>
			</text>
			<path class="cls-3" d="M98,81.47l11.1-27.65h1.75L122,81.47h-1.9L109.6,55.08h.76L99.92,81.47Zm4.07-7.78.58-1.7h14.44l.59,1.7Z" />
			<path class="cls-3" d="M126.34,81.47V53.82H135a11.28,11.28,0,0,1,5.2,1.1,7.86,7.86,0,0,1,3.35,3.18,11.31,11.31,0,0,1,0,10,7.84,7.84,0,0,1-3.35,3.2,11.28,11.28,0,0,1-5.2,1.1h-7.68l.79-.94v10Zm1.76-9.88-.79-1H135q3.9,0,5.91-2a7.33,7.33,0,0,0,2-5.51,7.38,7.38,0,0,0-2-5.55q-2-2-5.91-2h-7.68l.79-1Z" />
			<path class="cls-3" d="M150.64,81.47V53.82h8.64a11.35,11.35,0,0,1,5.21,1.1,7.89,7.89,0,0,1,3.34,3.18,11.31,11.31,0,0,1,0,10,7.88,7.88,0,0,1-3.34,3.2,11.35,11.35,0,0,1-5.21,1.1H151.6l.79-.94v10Zm1.75-9.88-.79-1h7.68q3.9,0,5.91-2a7.29,7.29,0,0,0,2-5.51,7.34,7.34,0,0,0-2-5.55q-2-2-5.91-2H151.6l.79-1Z" />
			<path class="cls-3" d="M169.69,81.47l11.09-27.65h1.76l11.1,27.65h-1.9L181.27,55.08H182L171.58,81.47Zm4.07-7.78.58-1.7h14.44l.58,1.7Z" />
			<path class="cls-3" d="M198,81.47V53.82h8.65a11.28,11.28,0,0,1,5.2,1.1,7.91,7.91,0,0,1,3.35,3.18,10.1,10.1,0,0,1,1.17,5,9.94,9.94,0,0,1-1.17,5,8,8,0,0,1-3.35,3.2,11.15,11.15,0,0,1-5.2,1.12H199l.79-.94v10Zm1.76-9.88-.79-.94h7.68a8.09,8.09,0,0,0,5.91-2,7.41,7.41,0,0,0,2-5.53,7.38,7.38,0,0,0-2-5.55q-2-2-5.91-2H199l.79-1Zm15,9.88-6.27-10h2l6.27,10Z" />
			<path class="cls-3" d="M224.58,79.66h14.88v1.81H222.82V53.82H239v1.81H224.58Zm-.21-13.12h13.06v1.78H224.37Z" />
			<path class="cls-3" d="M245.87,81.47V53.82h1.76V79.66h13.88v1.81Z" />
		</g>
	</g>
</svg>
